<mxfile host="app.diagrams.net" modified="2023-06-12T12:44:24.140Z" agent="Mozilla/5.0 (Windows NT 10.0; Win64; x64) AppleWebKit/537.36 (KHTML, like Gecko) Chrome/114.0.0.0 Safari/537.36 Edg/114.0.1823.37" etag="Wus_U0uMp-bfXJzrAVzr" version="21.3.7" type="github">
  <diagram name="Page-1" id="hQMZQqTDjqiWErumYXM8">
    <mxGraphModel dx="979" dy="470" grid="1" gridSize="10" guides="1" tooltips="1" connect="1" arrows="1" fold="1" page="1" pageScale="1" pageWidth="827" pageHeight="1169" math="0" shadow="0">
      <root>
        <mxCell id="0" />
        <mxCell id="1" parent="0" />
        <mxCell id="GQ9Sj-YRFrO3vPkfWncU-52" value="" style="rounded=1;whiteSpace=wrap;html=1;" vertex="1" parent="1">
          <mxGeometry x="70" y="480" width="450" height="420" as="geometry" />
        </mxCell>
        <mxCell id="GQ9Sj-YRFrO3vPkfWncU-41" value="" style="rounded=1;whiteSpace=wrap;html=1;" vertex="1" parent="1">
          <mxGeometry x="208.75" y="120" width="330" height="170" as="geometry" />
        </mxCell>
        <mxCell id="GQ9Sj-YRFrO3vPkfWncU-1" value="" style="image;aspect=fixed;html=1;points=[];align=center;fontSize=12;image=img/lib/azure2/app_services/App_Service_Plans.svg;" vertex="1" parent="1">
          <mxGeometry x="107" y="725" width="45" height="45" as="geometry" />
        </mxCell>
        <mxCell id="GQ9Sj-YRFrO3vPkfWncU-2" value="" style="image;aspect=fixed;html=1;points=[];align=center;fontSize=12;image=img/lib/azure2/app_services/App_Services.svg;" vertex="1" parent="1">
          <mxGeometry x="255" y="810" width="50" height="50" as="geometry" />
        </mxCell>
        <mxCell id="GQ9Sj-YRFrO3vPkfWncU-5" value="" style="image;sketch=0;aspect=fixed;html=1;points=[];align=center;fontSize=12;image=img/lib/mscae/Azure_Pipelines.svg;shadow=1;" vertex="1" parent="1">
          <mxGeometry x="230" y="340" width="50" height="50" as="geometry" />
        </mxCell>
        <mxCell id="GQ9Sj-YRFrO3vPkfWncU-27" value="Pipeline" style="text;strokeColor=none;align=center;fillColor=none;html=1;verticalAlign=middle;whiteSpace=wrap;rounded=0;" vertex="1" parent="1">
          <mxGeometry x="200" y="420" width="105" height="30" as="geometry" />
        </mxCell>
        <mxCell id="GQ9Sj-YRFrO3vPkfWncU-15" value="" style="image;aspect=fixed;html=1;points=[];align=center;fontSize=12;image=img/lib/azure2/devops/Azure_DevOps.svg;" vertex="1" parent="1">
          <mxGeometry x="70" y="30" width="54" height="54" as="geometry" />
        </mxCell>
        <mxCell id="GQ9Sj-YRFrO3vPkfWncU-33" value="" style="image;aspect=fixed;html=1;points=[];align=center;fontSize=12;image=img/lib/azure2/networking/DNS_Zones.svg;" vertex="1" parent="1">
          <mxGeometry x="190" y="727.5" width="40" height="40" as="geometry" />
        </mxCell>
        <mxCell id="GQ9Sj-YRFrO3vPkfWncU-36" value="variables.tf" style="text;strokeColor=none;align=center;fillColor=none;html=1;verticalAlign=middle;whiteSpace=wrap;rounded=0;" vertex="1" parent="1">
          <mxGeometry x="353.75" y="210" width="60" height="30" as="geometry" />
        </mxCell>
        <mxCell id="GQ9Sj-YRFrO3vPkfWncU-37" value="" style="image;sketch=0;aspect=fixed;html=1;points=[];align=center;fontSize=12;image=img/lib/mscae/Azure_Repos.svg;" vertex="1" parent="1">
          <mxGeometry x="230" y="140" width="45" height="50" as="geometry" />
        </mxCell>
        <mxCell id="GQ9Sj-YRFrO3vPkfWncU-40" value="Azure DevOps" style="text;strokeColor=none;align=center;fillColor=none;html=1;verticalAlign=middle;whiteSpace=wrap;rounded=0;" vertex="1" parent="1">
          <mxGeometry x="42" y="80" width="110" height="30" as="geometry" />
        </mxCell>
        <mxCell id="GQ9Sj-YRFrO3vPkfWncU-42" value="Repos" style="text;strokeColor=none;align=center;fillColor=none;html=1;verticalAlign=middle;whiteSpace=wrap;rounded=0;" vertex="1" parent="1">
          <mxGeometry x="220" y="200" width="60" height="30" as="geometry" />
        </mxCell>
        <mxCell id="GQ9Sj-YRFrO3vPkfWncU-43" value="" style="endArrow=classic;html=1;rounded=0;" edge="1" parent="1">
          <mxGeometry width="50" height="50" relative="1" as="geometry">
            <mxPoint x="249.5" y="250" as="sourcePoint" />
            <mxPoint x="249.5" y="320" as="targetPoint" />
          </mxGeometry>
        </mxCell>
        <mxCell id="GQ9Sj-YRFrO3vPkfWncU-44" value="" style="endArrow=classic;html=1;rounded=0;" edge="1" parent="1">
          <mxGeometry width="50" height="50" relative="1" as="geometry">
            <mxPoint x="320" y="364.5" as="sourcePoint" />
            <mxPoint x="380" y="364.5" as="targetPoint" />
          </mxGeometry>
        </mxCell>
        <mxCell id="GQ9Sj-YRFrO3vPkfWncU-45" value="Terraform config files" style="text;strokeColor=none;align=center;fillColor=none;html=1;verticalAlign=middle;whiteSpace=wrap;rounded=0;" vertex="1" parent="1">
          <mxGeometry x="360" y="135" width="120" height="30" as="geometry" />
        </mxCell>
        <mxCell id="GQ9Sj-YRFrO3vPkfWncU-47" value="" style="verticalLabelPosition=bottom;html=1;verticalAlign=top;align=center;strokeColor=none;fillColor=#00BEF2;shape=mxgraph.azure.code_file;pointerEvents=1;" vertex="1" parent="1">
          <mxGeometry x="360" y="160" width="47.5" height="50" as="geometry" />
        </mxCell>
        <mxCell id="GQ9Sj-YRFrO3vPkfWncU-48" value="" style="verticalLabelPosition=bottom;html=1;verticalAlign=top;align=center;strokeColor=none;fillColor=#00BEF2;shape=mxgraph.azure.code_file;pointerEvents=1;" vertex="1" parent="1">
          <mxGeometry x="442.5" y="160" width="47.5" height="50" as="geometry" />
        </mxCell>
        <mxCell id="GQ9Sj-YRFrO3vPkfWncU-49" value="main.tf" style="text;strokeColor=none;align=center;fillColor=none;html=1;verticalAlign=middle;whiteSpace=wrap;rounded=0;" vertex="1" parent="1">
          <mxGeometry x="440" y="210" width="60" height="30" as="geometry" />
        </mxCell>
        <mxCell id="GQ9Sj-YRFrO3vPkfWncU-50" value="" style="endArrow=classic;html=1;rounded=0;" edge="1" parent="1">
          <mxGeometry width="50" height="50" relative="1" as="geometry">
            <mxPoint x="460" y="260" as="sourcePoint" />
            <mxPoint x="460" y="320" as="targetPoint" />
          </mxGeometry>
        </mxCell>
        <mxCell id="GQ9Sj-YRFrO3vPkfWncU-51" value="Terraform" style="text;strokeColor=none;align=center;fillColor=none;html=1;verticalAlign=middle;whiteSpace=wrap;rounded=0;" vertex="1" parent="1">
          <mxGeometry x="430" y="350" width="60" height="30" as="geometry" />
        </mxCell>
        <mxCell id="GQ9Sj-YRFrO3vPkfWncU-55" value="" style="image;aspect=fixed;html=1;points=[];align=center;fontSize=12;image=img/lib/azure2/general/Resource_Groups.svg;" vertex="1" parent="1">
          <mxGeometry x="90" y="470" width="42.51" height="40" as="geometry" />
        </mxCell>
        <mxCell id="GQ9Sj-YRFrO3vPkfWncU-56" value="Resource group" style="text;strokeColor=none;align=center;fillColor=none;html=1;verticalAlign=middle;whiteSpace=wrap;rounded=0;" vertex="1" parent="1">
          <mxGeometry x="81.25999999999999" y="520" width="60" height="20" as="geometry" />
        </mxCell>
        <mxCell id="GQ9Sj-YRFrO3vPkfWncU-58" value="App Service Plan" style="text;strokeColor=none;align=center;fillColor=none;html=1;verticalAlign=middle;whiteSpace=wrap;rounded=0;" vertex="1" parent="1">
          <mxGeometry x="81.26" y="770" width="100" height="30" as="geometry" />
        </mxCell>
        <mxCell id="GQ9Sj-YRFrO3vPkfWncU-59" value="Web App" style="text;strokeColor=none;align=center;fillColor=none;html=1;verticalAlign=middle;whiteSpace=wrap;rounded=0;" vertex="1" parent="1">
          <mxGeometry x="245" y="860" width="60" height="30" as="geometry" />
        </mxCell>
        <mxCell id="GQ9Sj-YRFrO3vPkfWncU-65" value="" style="rounded=1;whiteSpace=wrap;html=1;fillColor=#D4E1F5;" vertex="1" parent="1">
          <mxGeometry x="280" y="590" width="185" height="150" as="geometry" />
        </mxCell>
        <mxCell id="GQ9Sj-YRFrO3vPkfWncU-62" value="" style="image;aspect=fixed;html=1;points=[];align=center;fontSize=12;image=img/lib/azure2/storage/Storage_Accounts.svg;" vertex="1" parent="1">
          <mxGeometry x="348.75" y="570" width="50" height="40" as="geometry" />
        </mxCell>
        <mxCell id="GQ9Sj-YRFrO3vPkfWncU-63" value="Storage Account" style="text;strokeColor=none;align=center;fillColor=none;html=1;verticalAlign=middle;whiteSpace=wrap;rounded=0;" vertex="1" parent="1">
          <mxGeometry x="318.75" y="610" width="110" height="30" as="geometry" />
        </mxCell>
        <mxCell id="GQ9Sj-YRFrO3vPkfWncU-66" value="" style="image;aspect=fixed;html=1;points=[];align=center;fontSize=12;image=img/lib/azure2/storage/Azure_Fileshare.svg;" vertex="1" parent="1">
          <mxGeometry x="343" y="635.5" width="59" height="59" as="geometry" />
        </mxCell>
        <mxCell id="GQ9Sj-YRFrO3vPkfWncU-67" value="File Share" style="text;strokeColor=none;align=center;fillColor=none;html=1;verticalAlign=middle;whiteSpace=wrap;rounded=0;" vertex="1" parent="1">
          <mxGeometry x="347.5" y="690" width="60" height="30" as="geometry" />
        </mxCell>
        <mxCell id="GQ9Sj-YRFrO3vPkfWncU-69" value="" style="endArrow=classic;html=1;rounded=0;" edge="1" parent="1">
          <mxGeometry width="50" height="50" relative="1" as="geometry">
            <mxPoint x="459.5" y="370" as="sourcePoint" />
            <mxPoint x="459.5" y="410" as="targetPoint" />
            <Array as="points">
              <mxPoint x="459.5" y="380" />
            </Array>
          </mxGeometry>
        </mxCell>
        <mxCell id="GQ9Sj-YRFrO3vPkfWncU-88" value="" style="edgeStyle=orthogonalEdgeStyle;rounded=0;orthogonalLoop=1;jettySize=auto;html=1;" edge="1" parent="1" source="GQ9Sj-YRFrO3vPkfWncU-70" target="GQ9Sj-YRFrO3vPkfWncU-87">
          <mxGeometry relative="1" as="geometry" />
        </mxCell>
        <mxCell id="GQ9Sj-YRFrO3vPkfWncU-70" value="az login" style="text;strokeColor=none;align=center;fillColor=none;html=1;verticalAlign=middle;whiteSpace=wrap;rounded=0;" vertex="1" parent="1">
          <mxGeometry x="430" y="420" width="60" height="30" as="geometry" />
        </mxCell>
        <mxCell id="GQ9Sj-YRFrO3vPkfWncU-71" value="" style="endArrow=classic;html=1;rounded=0;" edge="1" parent="1">
          <mxGeometry width="50" height="50" relative="1" as="geometry">
            <mxPoint x="459.5" y="450" as="sourcePoint" />
            <mxPoint x="459.5" y="510" as="targetPoint" />
          </mxGeometry>
        </mxCell>
        <mxCell id="GQ9Sj-YRFrO3vPkfWncU-72" value="" style="rounded=1;whiteSpace=wrap;html=1;arcSize=17;" vertex="1" parent="1">
          <mxGeometry x="580" y="570" width="220" height="170" as="geometry" />
        </mxCell>
        <mxCell id="GQ9Sj-YRFrO3vPkfWncU-73" value="" style="image;aspect=fixed;html=1;points=[];align=center;fontSize=12;image=img/lib/azure2/storage/Azure_Fileshare.svg;" vertex="1" parent="1">
          <mxGeometry x="343" y="635.5" width="59" height="59" as="geometry" />
        </mxCell>
        <mxCell id="GQ9Sj-YRFrO3vPkfWncU-74" value="" style="image;aspect=fixed;html=1;points=[];align=center;fontSize=12;image=img/lib/azure2/storage/Azure_Fileshare.svg;" vertex="1" parent="1">
          <mxGeometry x="645.47" y="531" width="59" height="59" as="geometry" />
        </mxCell>
        <mxCell id="GQ9Sj-YRFrO3vPkfWncU-75" value="File Share" style="text;strokeColor=none;align=center;fillColor=none;html=1;verticalAlign=middle;whiteSpace=wrap;rounded=0;" vertex="1" parent="1">
          <mxGeometry x="644.47" y="580" width="60" height="30" as="geometry" />
        </mxCell>
        <mxCell id="GQ9Sj-YRFrO3vPkfWncU-76" value="" style="image;aspect=fixed;html=1;points=[];align=center;fontSize=12;image=img/lib/azure2/security/Keys.svg;" vertex="1" parent="1">
          <mxGeometry x="651.74" y="631" width="45.47" height="48" as="geometry" />
        </mxCell>
        <mxCell id="GQ9Sj-YRFrO3vPkfWncU-77" value="File Share Keys" style="text;strokeColor=none;align=center;fillColor=none;html=1;verticalAlign=middle;whiteSpace=wrap;rounded=0;" vertex="1" parent="1">
          <mxGeometry x="620" y="679" width="100" height="30" as="geometry" />
        </mxCell>
        <mxCell id="GQ9Sj-YRFrO3vPkfWncU-79" value="" style="endArrow=classic;html=1;rounded=0;" edge="1" parent="1">
          <mxGeometry width="50" height="50" relative="1" as="geometry">
            <mxPoint x="330" y="910" as="sourcePoint" />
            <mxPoint x="330" y="970" as="targetPoint" />
          </mxGeometry>
        </mxCell>
        <mxCell id="GQ9Sj-YRFrO3vPkfWncU-81" value="" style="endArrow=classic;startArrow=classic;html=1;rounded=0;" edge="1" parent="1">
          <mxGeometry width="50" height="50" relative="1" as="geometry">
            <mxPoint x="520" y="654.5" as="sourcePoint" />
            <mxPoint x="570" y="654.5" as="targetPoint" />
            <Array as="points" />
          </mxGeometry>
        </mxCell>
        <mxCell id="GQ9Sj-YRFrO3vPkfWncU-83" value="" style="endArrow=classic;startArrow=classic;html=1;rounded=0;" edge="1" parent="1">
          <mxGeometry width="50" height="50" relative="1" as="geometry">
            <mxPoint x="330" y="800" as="sourcePoint" />
            <mxPoint x="380" y="750" as="targetPoint" />
            <Array as="points">
              <mxPoint x="380" y="780" />
            </Array>
          </mxGeometry>
        </mxCell>
        <mxCell id="GQ9Sj-YRFrO3vPkfWncU-84" value="mount" style="text;strokeColor=none;align=center;fillColor=none;html=1;verticalAlign=middle;whiteSpace=wrap;rounded=0;" vertex="1" parent="1">
          <mxGeometry x="342" y="790" width="60" height="30" as="geometry" />
        </mxCell>
        <mxCell id="GQ9Sj-YRFrO3vPkfWncU-87" value="" style="whiteSpace=wrap;html=1;" vertex="1" parent="1">
          <mxGeometry x="540" y="405" width="120" height="60" as="geometry" />
        </mxCell>
        <mxCell id="GQ9Sj-YRFrO3vPkfWncU-89" value="Service connection to Azure" style="text;strokeColor=none;align=center;fillColor=none;html=1;verticalAlign=middle;whiteSpace=wrap;rounded=0;" vertex="1" parent="1">
          <mxGeometry x="564.47" y="410" width="80" height="50" as="geometry" />
        </mxCell>
      </root>
    </mxGraphModel>
  </diagram>
</mxfile>
